<svg id="Layer_1" data-name="Layer 1" xmlns="http://www.w3.org/2000/svg" width="1724.88" height="426.25" viewBox="0 0 1724.88 426.25">
  <title>in-future-black</title>
  <g>
    <path d="M12.27,185.35v-173H83.05V207.67Q47.65,198,12.27,185.35Z" transform="translate(0 -12.38)"/>
    <path d="M319,12.38v230q-40.23-1.45-80.46-5.69c-23.67-35.64-47.34-75.22-71-116l-1.42-.16V226.36q-33.26-6-66.53-14.35V12.38H181c23.36,43.33,46.71,86.9,70.07,127.47l1.42.09V12.38Z" transform="translate(0 -12.38)"/>
    <path d="M487.9,83.75v37c38-1.86,76-4.46,114-7.57v56.1c-38,4.37-76,8-114,10.63v58q-35.38,2.9-70.78,4.27V12.38H608.46V78.14Q548.19,81.62,487.9,83.75Z" transform="translate(0 -12.38)"/>
    <path d="M839.2,12.38v98c0,62.72-41.29,88.86-109,101.13-67.71,11.3-109,1-109-74.06V12.38H692V129.22c0,25.31,14.39,30.18,38.22,26.64s38.22-12.63,38.22-36.27V12.38Z" transform="translate(0 -12.38)"/>
    <path d="M1053.66,48q-32.91,2.29-65.82,4.85,0,48.8,0,105-35.4,6.22-70.78,12.84V58.41q-32.92,2.66-65.83,5.38V12.38h202.43Z" transform="translate(0 -12.38)"/>
    <path d="M1283.69,12.38V63.62c0,43.09-41.28,65.1-109,71.79-67.71,8.75-109-3.21-109-54.28V12.38h70.78V73.55c0,16.44,14.39,20.29,38.22,17.81,23.83-2.22,38.22-8.73,38.22-24.08V12.38Z" transform="translate(0 -12.38)"/>
    <path d="M1524.34,129.74q-39-5.63-78.09-8.31-13.7-21.89-27.37-40.09-24-.95-47.89-1.1v38.29q-35.4-.28-70.78,1.27V12.38h145.33c56.86-.17,75,9.26,75,32.63,0,17.7-12.74,26.37-34.45,28.45v1.7A605.17,605.17,0,0,1,1524.34,129.74ZM1441.76,45.3c0-5.86-4.48-8.52-17.93-8.85q-26.41-.59-52.84-.68V52.33q26.41.14,52.84,1C1437.05,53.78,1441.76,51.08,1441.76,45.3Z" transform="translate(0 -12.38)"/>
    <path d="M1603.37,57.05q57,7,114,18v38.27a1161.46,1161.46,0,0,0-114-25.81v19.3a1043.56,1043.56,0,0,1,121.51,31.78v42.23A952,952,0,0,0,1532.59,131V12.38h190.87V55.12q-60-8.5-120.09-13.62Z" transform="translate(0 -12.38)"/>
    <path d="M310,325.71c-16.9,49.41-33.81,85-50.72,110.09q-38.1-.21-76.21-.58a406.92,406.92,0,0,1-18.87-42.38,262.52,262.52,0,0,1-8.5-26.84l-1.41-.21a242,242,0,0,1-8.49,25c-6.3,15.33-12.59,29.76-18.88,43.8q-38.81-.54-77.62-1.28C32.87,386,16.44,326.26,0,263.78q36,13.68,72,24c5,21.78,9.91,42.61,14.86,62.13,3.54,14.4,6.85,30.34,6.85,30.3l1.41.22s4-14.66,8.73-27.58c6-16.64,12-33.88,17.93-52.15q33.27,7.66,66.53,12.9c6.14,20.44,12.27,39.15,18.41,55.93,4.48,12.23,8.49,25.2,8.49,25.14l1.41.11c0,.05,3.31-12.29,7.08-23.83,5-15.3,9.91-32.13,14.87-50.66Q274.28,324.19,310,325.71Z" transform="translate(0 -12.38)"/>
    <path d="M385,378c38-.47,76-2.19,114-4.87v26.66c-38,1.95-76,3.2-113.95,3.54v13q60.75-.39,121.5-2.84v22.2q-96.14.56-192.28.37V325.89c63.62,2.57,127.25,0,190.87-5.84v36.37c-40,3.26-80.06,5.36-120.09,5.9Z" transform="translate(0 -12.38)"/>
    <path d="M800.28,324.31q-32.92,5.26-65.83,10.28v99.09q-35.38.39-70.78.73V344.83q-32.91,4.49-65.82,8.36V309.35c67.47-9.21,134.95-21.18,202.43-33.81Z" transform="translate(0 -12.38)"/>
    <path d="M1036.44,430.31q-39,.39-78.09.83c-9.12-18.47-18.25-35.89-27.37-52.49l-47.89,4.13V432l-70.78.81V273.28c48.44-9.12,96.89-18.5,145.33-27.38,56.86-10.32,75,8.58,75,50.35,0,31.55-12.74,48.83-34.45,57.44v2.75C1011,379.22,1023.7,403.68,1036.44,430.31ZM953.87,315.58c0-10.72-4.49-15-17.93-12.91q-26.43,4.2-52.85,8.49v29.31q26.42-3.59,52.85-7.13C949.15,331.6,953.87,326.06,953.87,315.58Z" transform="translate(0 -12.38)"/>
    <path d="M1262.7,204.08V321c0,86.08-41.29,118.77-109,117.25-67.71-.08-109-26.47-109-100.49V230.68q35.38-5.82,70.78-10.86V330.63c0,27.53,14.39,35.44,38.22,34.07,23.83-1.15,38.22-11.13,38.22-40.09V210.29Q1227.3,206.51,1262.7,204.08Z" transform="translate(0 -12.38)"/>
    <path d="M1385.62,242.84c-22.65-.34-28.08,4.37-28.08,11.65s4,10.89,20.53,12.84q29.25,3.78,58.51,8.72c40.34,7.25,66.29,28,66.29,76.33,0,69.29-40.11,86.7-114.66,86.23-73.14.69-112.78-20.5-114.9-92.76q40.11-1.26,80.22-1.39c1.18,21.43,13.68,26.19,35.62,26.3,24.78.24,30.91-4.48,30.91-13.72s-4-14.68-21.47-17.68q-27.36-4.8-54.74-8.92c-36.57-5-66.06-20.15-66.29-67.66-.24-55.84,45.3-69.42,109-68.85,63.23,1.9,106.64,18,108.76,72.92q-39.39-3.94-78.8-5.41C1415.58,250.53,1406.14,243.25,1385.62,242.84Z" transform="translate(0 -12.38)"/>
    <path d="M1705.3,308.13q-32.91-10-65.82-17.61v140q-35.38-.6-70.78-1v-153q-32.91-5.4-65.82-8.87V209.17a954.91,954.91,0,0,1,202.42,47.42Z" transform="translate(0 -12.38)"/>
  </g>
</svg>
