<svg id="Layer_1" data-name="Layer 1" xmlns="http://www.w3.org/2000/svg" width="2305.92" height="220.48" viewBox="0 0 2305.92 220.48">
  <defs>
    <style>
      .cls-1 {
        fill: #fa7268;
      }
    </style>
  </defs>
  <title>logo-do-it-just</title>
  <g>
    <path d="M160,222.17H10.76V17.24H160c83.81,0,120,27.84,120,102.46C280,194.61,243.82,222.17,160,222.17ZM96.87,77.51v84.38h39.61c34.44,0,49.36-12,49.36-42.19s-14.92-42.19-49.36-42.19Z" transform="translate(-10.76 -9.45)"/>
    <path d="M443,229.92c-101.89,0-150.4-35.31-150.4-110.22S341.12,9.49,443,9.49s150.4,35.3,150.4,110.21S544.9,229.92,443,229.92Zm0-157.29c-37.6,0-56.25,15.79-56.25,47.07s18.65,47.11,56.25,47.11S499.28,151,499.28,119.7,480.61,72.64,443,72.64Z" transform="translate(-10.76 -9.45)"/>
    <path d="M709.07,222.17V17.24h86.11V222.17Z" transform="translate(-10.76 -9.45)"/>
    <path d="M1056.08,78.67H976v143.5H889.89V78.67H809.82V17.24h246.26Z" transform="translate(-10.76 -9.45)"/>
    <path d="M1424.28,124c-1.15,85-45.64,105.05-131.17,105.63C1207.58,229.06,1166,209,1164.53,124v-5.21h86.1V124c0,30.71,13.49,42.48,42.48,42.48,29.57,0,45.06-12.35,45.06-42.48V17.24h86.11Z" transform="translate(-10.76 -9.45)"/>
    <path d="M1709.61,17.24V132.62c0,73.47-47.35,97-132.6,97s-132.6-23.54-132.6-97V17.24h86.11V132.33c0,25.26,15.5,34.16,46.49,34.16s46.5-8.9,46.5-34.16V17.24Z" transform="translate(-10.76 -9.45)"/>
    <path d="M1825,72.92c0,7.75,5.46,10.9,25,12.34l71.18,6.6c51.67,4.89,80.66,24.69,80.66,66,0,19.81-5.17,34.73-15.5,45.35-20.67,20.68-58.55,26.71-124,26.71-94.15-.58-135.76-14.93-139.78-75.2h97.58c1.44,17.22,14.35,21.81,43.34,21.81,28.71,0,37.6-3.73,37.6-11.77,0-8.32-5.74-12.34-26.12-14.63l-66.58-7.47c-25.55-2.87-45.64-8.89-59.7-18.08-14.07-9.47-21-24.68-21-45.92,0-25.83,11.49-43.92,34.16-54,23-10,55.68-15.21,98.45-15.21,42.19,0,74.33,5.16,96.72,15.21,22.68,10,34.44,27.84,35.59,54h-95.86c-1.15-11.2-13.49-17.51-37.6-17.51C1833,61.15,1825,65.17,1825,72.92Z" transform="translate(-10.76 -9.45)"/>
    <path d="M2248.06,78.67H2168v143.5h-86.1V78.67H2001.8V17.24h246.26Z" transform="translate(-10.76 -9.45)"/>
    <path class="cls-1" d="M2228.28,150.42h88.4v71.76h-88.4Z" transform="translate(-10.76 -9.45)"/>
  </g>
</svg>
