<svg id="Layer_1" data-name="Layer 1" xmlns="http://www.w3.org/2000/svg" width="2460.84" height="478.75" viewBox="0 0 2460.84 478.75">
  <defs>
    <style>
      .cls-1 {
        fill: #fa7268;
      }
    </style>
  </defs>
  <title>logo-red</title>
  <g>
    <path class="cls-1" d="M100.75,65.27h2.63C130.38,28.39,167.26,10,214.68,10c73.09,0,122.48,44.12,122.48,128.41V367.52H231.84V164c0-50-19.76-69.8-58.61-69.8s-67.83,29.63-67.83,84.29v189H0v-349H100.75Z" transform="translate(0 -9.94)"/>
    <path class="cls-1" d="M675.63,327.36c-32.26,32.26-77,48.72-134.33,48.72-115.24,0-183.07-69.8-183.07-183.06C358.23,79.1,426.06,9.94,541.3,9.94q85.94,0,134.33,49.39C707.9,91.6,724.36,136.38,724.36,193S707.9,294.43,675.63,327.36ZM541.3,87c-48.07,0-75.73,34.9-75.73,106s27.66,106,75.73,106C588.71,299,617,263.44,617,193S588.71,87,541.3,87Z" transform="translate(0 -9.94)"/>
    <path class="cls-1" d="M983.84,326V488.69H878.45V18.51H979.2v46.1h2.64C1002.91,28.39,1038.47,10,1088.52,10c86.92,0,150.8,71.78,150.8,182.41,0,112-63.88,183.72-148.17,183.72-48.07,0-83-16.46-104.7-50ZM1055,297c48.07,0,77-35.56,77-104s-29-104-77-104c-47.42,0-76.39,35.56-76.39,104.05s28.95,104,76.37,104Z" transform="translate(0 -9.94)"/>
    <path class="cls-1" d="M1475.73,323.4v-1.31c-19.1,32.26-64.54,54-114.58,54-61.9,0-116.56-40.16-116.56-105.36,0-71.12,42.8-102.07,113.26-111.94l68.49-9.85c33.58-4.61,48.73-13.83,48.73-35.56,0-19.1-19.75-31.61-52-31.61-36.22,0-59.93,14.49-62.56,44.12h-99.44c.66-39.51,15.81-68.48,45.44-87.58C1336.8,19.21,1376.31,10,1424.38,10c96.81,0,156.07,34.24,156.07,105.36V367.52H1475.07ZM1404,217.4c-32.27,5.93-52,20.42-52,48.73,0,27,17.12,40.83,46.09,40.83a83,83,0,0,0,52.69-18.44c16.46-12.51,24.36-30.95,24.36-56V200.26c-6.58,4.61-19.75,7.9-38.85,11.2Z" transform="translate(0 -9.94)"/>
    <path class="cls-1" d="M1715.43,65.27h2.63c27-36.88,63.88-55.32,111.29-55.32,73.1,0,122.49,44.12,122.49,128.41V367.52H1846.47V164c0-50-19.75-69.8-58.61-69.8S1720,123.87,1720,178.53v189H1614.68v-349h100.75Z" transform="translate(0 -9.94)"/>
    <path class="cls-1" d="M1986.08,18.51h105.36v349H1986.08Z" transform="translate(0 -9.94)"/>
    <path class="cls-1" d="M2460.84,246.36c-2.63,75.07-61.9,129.72-167.26,129.72-113.92,0-181.09-69.14-181.09-183.06S2179.68,9.94,2293.6,9.94c105.36,0,164,54,166.6,126.44H2352.84Q2344,87,2293.58,87c-47.41,0-73.76,34.9-73.76,106s26.35,106,73.76,106c34.24,0,54-16.46,59.92-52.68Z" transform="translate(0 -9.94)"/>
  </g>
</svg>
