<?xml version="1.0" encoding="utf-8"?>
<!-- Generator: Adobe Illustrator 22.1.0, SVG Export Plug-In . SVG Version: 6.00 Build 0)  -->
<svg version="1.1" id="Layer_1" xmlns="http://www.w3.org/2000/svg" xmlns:xlink="http://www.w3.org/1999/xlink" x="0px" y="0px"
	 viewBox="0 0 775.7 790.5" style="enable-background:new 0 0 775.7 790.5;" xml:space="preserve">
<style type="text/css">
	.st0{enable-background:new    ;}
	.st1{fill:#FFFFFF;}
</style>
<title>who-logo-white</title>
<g class="st0">
	<path class="st1" d="M395.1,135.5c-4.8-0.2-7.6,1.9-7.8,5.7c-0.1,3.9,2.5,6.1,7.3,6.3c4.4,0.2,6.4-1.7,6.8-4.1l14.8,0.6
		c-0.5,8.8-7.4,12.8-21.8,12.3c-14.5-0.5-21.3-5.4-20.9-15.5c0.4-10.1,7.5-14.4,22-13.9c14.4,0.5,20.9,5,20.8,13.3l-14.8-0.6
		C401.4,137.7,399.4,135.6,395.1,135.5z M416,139.7c-0.1-7.9-6.7-12-20.4-12.5c-14.4-0.5-21.2,3.8-21.6,13.5
		c-0.4,9.8,6.1,14.6,20.5,15.1c13.9,0.5,20.7-3.1,21.4-11.5l-14.1-0.5c-0.6,2.8-3.3,4.2-7.2,4.1c-5-0.2-7.9-2.6-7.7-6.7
		c0.2-4,3.1-6.3,8.2-6.1c3.6,0.1,6.3,1.7,6.8,4L416,139.7z"/>
</g>
<g class="st0">
	<path class="st1" d="M462.5,154.3c-2.7,9.7-10.5,12.4-24.9,8.5c-14.3-3.9-19.8-10.2-17.1-19.9s10.5-12.4,24.9-8.5
		C459.7,138.3,465.2,144.6,462.5,154.3z M420.9,143c-2.6,9.5,2.7,15.6,16.8,19.4c14.2,3.9,21.8,1.3,24.4-8.2s-2.7-15.6-16.8-19.4
		C431.1,130.9,423.5,133.5,420.9,143z M433.4,146.4c1.1-4,4.6-5.4,9.8-3.9c5.2,1.4,7.5,4.4,6.4,8.4s-4.6,5.4-9.8,3.9
		S432.3,150.3,433.4,146.4z M449.3,150.7c1-3.7-1.1-6.5-6.2-7.9s-8.3,0-9.3,3.7c-1,3.7,1.1,6.5,6.2,7.9
		C445,155.8,448.3,154.4,449.3,150.7z"/>
</g>
<g class="st0">
	<path class="st1" d="M508,162.8l-12.9,24.1l-12.6-6.7l-5-18.4l-0.3-0.1l-6.5,12.2l-10.4-5.6l12.9-24.1l12.7,6.8l4.9,18.1l0.3,0.1
		l6.4-12.1L508,162.8z M491.3,169.8l-0.7-0.4l-4.9-18.1l-12.2-6.5l-12.5,23.4l9.7,5.2l6.5-12.2l0.7,0.4l5,18.4l12.1,6.5l12.5-23.4
		l-9.7-5.2L491.3,169.8z"/>
</g>
<g class="st0">
	<path class="st1" d="M525.7,184.2c-3.1-2.7-4.5-2.9-5.3-2c-0.7,0.8-0.3,1.7,1.6,3.5l8.4,8.3c5.1,5.1,6.7,9.3,3,13.7
		c-5.2,6.1-11.3,3.2-22.1-6.1c-10.6-9-14.2-14.6-9.2-21.1l11.1,9.5c-1.1,2.3-0.2,4.1,2.7,6.6c3.2,2.8,4.9,3.1,5.7,2.1
		c0.8-1,0.2-2-1.5-3.7l-7.9-8c-4.8-4.9-7-9.2-3.1-13.7c4.7-5.5,11.3-2.5,21,5.9c9.6,8.2,13.6,14.2,9,20l-10.9-9.3
		C529.1,188.4,528.3,186.5,525.7,184.2z M539.1,198.7c3.7-5,1.1-10.4-9.2-19.2c-10.6-9.1-16.4-10.7-20.5-5.9
		c-3.3,3.8-2.4,7.6,3.1,13.2l7.9,8c2,2.1,2.4,3.2,1.5,4.2c-1.1,1.3-3.2,0.6-6.3-2.1c-3-2.6-3.9-4.5-2.9-6.8l-10.5-9
		c-4.2,5.6-1.8,10.7,9.3,20.2c11.7,10,16.9,11.5,21.5,6.1c3.3-3.9,2.4-7.8-3-13.2l-8.4-8.3c-2-2-2.5-3.1-1.6-4
		c1.1-1.2,2.9-0.6,5.8,1.9c2.6,2.2,3.5,4.2,2.9,5.9L539.1,198.7z"/>
</g>
<g class="st0">
	<path class="st1" d="M528.4,216.5l20.5-18l8.3,9.4l-20.5,18L528.4,216.5z M556.6,207.8l-7.8-8.8l-19.9,17.5l7.8,8.8L556.6,207.8z"
		/>
</g>
<g class="st0">
	<path class="st1" d="M571.9,253.5c-8.4,5.4-14.3,3-19.9-5.8l-13-20.4l23-14.7l13.1,20.4C580.6,241.7,580.2,248.1,571.9,253.5z
		 M561.8,213.1l-22.3,14.3l12.8,20.1c5.8,9,11.6,10.7,19.4,5.7c7.8-5,8.7-11,3-20L561.8,213.1z M564.7,242.3c-3.1,2-5.8,1.2-8-2.3
		l-4.3-6.8l9.3-6l4.3,6.8C568.2,237.4,567.7,240.3,564.7,242.3z M561.5,227.8l-8.7,5.6l4.1,6.5c1.9,3,4.4,4.1,7.5,2.1
		c3.1-2,3.1-4.7,1.2-7.7L561.5,227.8z"/>
</g>
<g class="st0">
	<path class="st1" d="M581.4,268.1l7.5,19.5l-5.9,2.2l-7.5-19.5l-3.3,1.3l8,20.8l-6.9,2.6l-12.5-32.5l25.5-9.8l12.4,32.2l-6.5,2.5
		l-7.9-20.5L581.4,268.1z M592.5,286.9l5.7-2.2l-12.1-31.5l-24.8,9.5l12.2,31.8l6.1-2.4l-8-20.8l4-1.5l7.5,19.5l5.1-2l-7.5-19.5
		l3.7-1.4L592.5,286.9z"/>
</g>
<g class="st0">
	<path class="st1" d="M578.3,322.2l6.1-5.5L583,308l-6.9,1.1l-2-12.4l26.9-4.5l4.6,27.5c1.4,8.5-1.4,12.1-7.5,13.1
		c-4.9,0.8-7.3-1.2-8.7-4.5l-0.4,0.1l-8.3,8L578.3,322.2z M580.9,335.7l7.9-7.6l0.8-0.1c1.5,3.8,4.2,5.2,8.4,4.5
		c6.3-1,8.5-4.8,7.2-12.7l-4.5-27.2l-26.2,4.3l1.9,11.6l6.9-1.1l1.5,9.3l-6.1,5.5L580.9,335.7z M594.5,319.7
		c-1.7,0.3-2.8-0.6-3.1-2.6l-1.8-10.6l5.2-0.9l1.8,10.6C596.9,318.2,596.2,319.4,594.5,319.7z M594.4,319.3c1.5-0.2,2.1-1.3,1.8-3
		l-1.7-10.3l-4.5,0.7l1.7,10.3C592.1,318.8,592.9,319.6,594.4,319.3z"/>
</g>
<g class="st0">
	<path class="st1" d="M579.1,367.1l3.3-1.4l0.8-14.6l-3.1-1.8l0.7-13.7l26.5,16.1l-0.9,16.1l-28,13.1L579.1,367.1z M578.8,380.2
		l27.2-12.7l0.8-15.6l-25.7-15.7l-0.7,12.9l3.1,1.8l-0.8,15.1l-3.3,1.4L578.8,380.2z M597.7,359.5c0,0-3.7,1.5-8.4,3.5l0.5-8.7
		c4.5,2.5,8,4.4,8,4.4L597.7,359.5z M589.7,362.5c4.2-1.8,7.6-3.2,7.6-3.2l0-0.3c0,0-3.3-1.7-7.2-4L589.7,362.5z"/>
</g>
<g class="st0">
	<path class="st1" d="M571,406l7.9-2.4l2.4-8.5l-6.7-1.9l3.4-12.1l26.3,7.4l-7.6,26.9c-2.3,8.3-6.4,10.4-12.3,8.7
		c-4.8-1.3-6.1-4.2-6-7.8l-0.4-0.1L567,420L571,406z M567.6,419.4l10.4-3.5l0.8,0.2c-0.2,4.1,1.5,6.5,5.7,7.7
		c6.1,1.7,9.7-0.8,11.9-8.4l7.4-26.5l-25.5-7.2L575,393l6.7,1.9l-2.5,9.1l-7.9,2.4L567.6,419.4z M586.7,410.7
		c-1.7-0.5-2.2-1.7-1.7-3.7l2.9-10.4l5.1,1.4l-2.9,10.4C589.6,410.3,588.4,411.1,586.7,410.7z M586.8,410.3c1.5,0.4,2.4-0.3,2.9-2
		l2.8-10l-4.3-1.2l-2.8,10C584.9,408.8,585.4,409.9,586.8,410.3z"/>
</g>
<g class="st0">
	<path class="st1" d="M575.9,439.7l-9.6,18.6l-5.6-2.9l9.6-18.6l-3.2-1.6L556.9,455l-6.5-3.4l16-30.9l24.3,12.6l-15.9,30.7l-6.2-3.2
		l10.1-19.5L575.9,439.7z M569.1,460.6l5.5,2.8l15.5-30l-23.6-12.2l-15.6,30.3l5.9,3l10.2-19.8l3.8,2l-9.6,18.6l4.9,2.5l9.6-18.6
		l3.5,1.8L569.1,460.6z"/>
</g>
<g class="st0">
	<path class="st1" d="M540.8,464.2l21.3,17.2l-7.9,9.8l-21.3-17.2L540.8,464.2z M554.1,490.6l7.4-9.2l-20.7-16.7l-7.4,9.2
		L554.1,490.6z"/>
</g>
<g class="st0">
	<path class="st1" d="M496.8,517.3c-3.2-4-3-8,2.8-12.7l22.9-18.5l17.2,21.3l-22.6,18.3c-5.3,4.3-9,3.9-11.8,0.5
		c-1.9-2.3-1.8-4.6-0.1-6.8l-0.2-0.2C502.3,520.6,499.5,520.7,496.8,517.3z M505.6,526c2.8,3.5,6.4,3.3,11.2-0.5l22.3-18l-16.7-20.7
		l-22.6,18.2c-5.3,4.3-6.1,8-2.8,12.2c2.2,2.8,4.7,3.4,8,1.6l0.6,0.7C503.8,521.6,503.9,523.9,505.6,526z M516.9,498.6l3.3,4.1
		l-8.6,6.9c-1.5,1.3-2.9,1.2-4-0.1c-1.1-1.3-0.8-2.7,0.7-3.9L516.9,498.6z M507.9,509.2c1,1.2,2.1,1.2,3.5,0.1l8.3-6.7l-2.8-3.5
		l-8.3,6.7C507.2,506.9,507,508,507.9,509.2z M523.2,506.4l3,3.8l-8.2,6.6c-1.4,1.2-2.7,1.1-3.7-0.1c-1-1.2-0.7-2.5,0.7-3.6
		L523.2,506.4z M514.6,516.4c0.9,1.1,1.9,1.1,3.2,0.1l7.9-6.4l-2.6-3.2l-7.9,6.4C514,514.3,513.8,515.3,514.6,516.4z"/>
</g>
<g class="st0">
	<path class="st1" d="M467.6,523l7.1,4.2l7.9-4l-3.1-6.2l11.2-5.6l12.2,24.4l-25,12.5c-7.7,3.9-11.9,2.3-14.7-3.3
		c-2.2-4.4-1-7.4,1.7-9.7l-0.2-0.3l-10.1-5.6L467.6,523z M455.5,529.5l9.6,5.3l0.4,0.7c-3.2,2.6-3.8,5.5-1.8,9.4
		c2.9,5.7,7.1,6.6,14.2,3.1l24.6-12.3l-11.9-23.7l-10.5,5.3l3.1,6.2l-8.4,4.2l-7.1-4.2L455.5,529.5z M474.8,537.8
		c-0.8-1.5-0.2-2.8,1.6-3.7l9.6-4.8l2.4,4.7l-9.6,4.8C476.9,539.6,475.6,539.3,474.8,537.8z M475.1,537.6c0.7,1.4,1.9,1.6,3.4,0.8
		l9.3-4.7l-2-4l-9.3,4.7C475,535.1,474.5,536.2,475.1,537.6z"/>
</g>
<g class="st0">
	<path class="st1" d="M425,536.9l2.3,2.7l14.2-3.5l0.8-3.5l13.3-3.3l-7.7,30l-15.6,3.9l-20.7-23L425,536.9z M412.4,540.4l20.1,22.3
		l15.2-3.8l7.5-29.2l-12.5,3.1l-0.8,3.5l-14.6,3.6l-2.3-2.7L412.4,540.4z M437.6,552.5c0,0-2.5-3.1-5.8-7l8.5-2.1
		c-1.1,5-1.9,8.9-1.9,8.9L437.6,552.5z M432.5,545.7c2.9,3.5,5.3,6.4,5.3,6.4l0.3-0.1c0,0,0.7-3.6,1.7-8.1L432.5,545.7z"/>
</g>
<g class="st0">
	<path class="st1" d="M372.3,568l-0.5-27.3l14.3-0.3l13.3,13.6l0.3,0l-0.3-13.9l11.8-0.2l0.5,27.3l-14.4,0.3l-13.2-13.4l-0.3,0
		l0.3,13.7L372.3,568z M383.5,553.7l0.8,0l13.2,13.4l13.9-0.3l-0.5-26.5l-11,0.2l0.3,13.9l-0.8,0l-13.3-13.6l-13.7,0.3l0.5,26.5
		l11-0.2L383.5,553.7z"/>
</g>
<g class="st0">
	<path class="st1" d="M328,546.5c1.9-9.8,7.7-12.4,17.9-10.4l23.8,4.6l-5.2,26.8l-23.8-4.6C330.5,560.9,326.1,556.2,328,546.5z
		 M364.1,567l5-26l-23.4-4.5c-10.5-2-15.7,1-17.5,10.1s1.9,13.9,12.4,15.9L364.1,567z M341.1,549c0.7-3.6,3.2-5,7.2-4.3l7.9,1.5
		l-2.1,10.9l-7.9-1.5C342.1,554.9,340.4,552.6,341.1,549z M353.7,556.7l2-10.1l-7.5-1.5c-3.5-0.7-6,0.4-6.7,4s1.3,5.5,4.8,6.2
		L353.7,556.7z"/>
</g>
<g class="st0">
	<path class="st1" d="M288.6,535.9c4.3,2.2,7.7,1.6,9.5-1.8c1.8-3.4,0.4-6.6-3.9-8.8c-3.9-2-6.5-1.2-7.9,0.8l-13.1-6.9
		c4.3-7.7,12.2-8.4,25-1.7c12.9,6.7,16.8,14.1,12.1,23c-4.7,8.9-13,9.8-25.8,3.1c-12.8-6.7-16.7-13.6-13-20.9l13.1,6.9
		C283.9,531.2,284.8,533.9,288.6,535.9z M271.6,523.1c-3.3,7.2,0.8,13.7,13,20.1c12.8,6.7,20.8,5.8,25.3-2.9
		c4.5-8.7,0.8-15.8-12-22.5c-12.3-6.5-20-6.1-24.3,1.2l12.5,6.6c1.8-2.2,4.8-2.4,8.2-0.6c4.5,2.3,6,5.8,4.1,9.3s-5.5,4.3-10,2
		c-3.2-1.7-5-4.3-4.4-6.6L271.6,523.1z"/>
</g>
<g class="st0">
	<path class="st1" d="M235.9,490c6.6-7.7,14.8-6.7,26.1,3c11.3,9.6,13.5,17.7,7,25.3c-6.6,7.7-14.8,6.7-26.1-3
		C231.6,505.7,229.3,497.7,235.9,490z M268.7,518.1c6.4-7.5,4.2-15.2-6.9-24.8s-19.2-10.5-25.6-3c-6.4,7.5-4.2,15.2,6.9,24.8
		S262.3,525.5,268.7,518.1z M258.8,509.6c-2.7,3.1-6.4,2.9-10.5-0.6c-4.1-3.5-4.9-7.2-2.2-10.3c2.7-3.1,6.4-2.9,10.5,0.6
		C260.7,502.8,261.5,506.5,258.8,509.6z M246.3,499c-2.5,2.9-1.8,6.3,2.2,9.8c4,3.4,7.5,3.6,10,0.7c2.5-2.9,1.8-6.3-2.2-9.8
		C252.3,496.2,248.8,496,246.3,499z"/>
</g>
<g class="st0">
	<path class="st1" d="M215.9,439.4l7.3,10.3l-13.9,9.8l0.2,0.3l17.9-4.1l5.2,7.3l-9.9,15.6l0.2,0.3l14-9.9l6.8,9.7l-22.4,15.8
		l-10.8-15.2l7.8-11.5l-0.2-0.2l-13.4,3.6l-11.2-15.8L215.9,439.4z M204.9,470.5l13.4-3.6l0.5,0.7l-7.8,11.5l10.4,14.7l21.8-15.4
		l-6.4-9l-14,9.9l-0.6-0.8l9.9-15.6l-4.9-6.9l-17.9,4.1l-0.6-0.8l13.9-9.8l-6.8-9.7l-21.8,15.4L204.9,470.5z"/>
</g>
<g class="st0">
	<path class="st1" d="M194.9,432.4l-8-19.3l5.8-2.4l8,19.3l3.3-1.4l-8.5-20.5l6.8-2.8l13.3,32.1l-25.2,10.5L177.2,416l6.4-2.6
		l8.4,20.3L194.9,432.4z M183.4,413.8l-5.7,2.4l12.9,31.1l24.5-10.2l-13-31.4l-6.1,2.5l8.5,20.5l-4,1.7l-8-19.3l-5.1,2.1l8,19.3
		l-3.7,1.5L183.4,413.8z"/>
</g>
<g class="st0">
	<path class="st1" d="M176.4,354c6.7-0.8,10.3,1.9,11.4,10.8l1.7,14l7.1-0.9l1.5,12.4l-27.1,3.3l-3.3-26.4
		C166.7,358.4,169.6,354.8,176.4,354z M171.4,393.3l26.3-3.2l-1.4-11.7l-7.1,0.9l-1.8-14.3c-1-8.3-4.2-11.3-11-10.5
		c-6.9,0.9-9.3,4.5-8.3,12.9L171.4,393.3z M182.7,380l-5.8,0.7l-1.2-9.8c-0.3-2.2,0.6-3.5,2.5-3.7c1.9-0.2,3,0.9,3.3,3L182.7,380z
		 M178.3,367.6c-1.7,0.2-2.4,1.4-2.1,3.3l1.2,9.4l5-0.6l-1.2-9.4C180.9,368.4,179.9,367.4,178.3,367.6z"/>
</g>
<g class="st0">
	<path class="st1" d="M177.5,336.6l1.5-20.8l6.3,0.5l-1.5,20.8l3.5,0.3l1.6-22.2l7.3,0.5l-2.6,34.7l-27.2-2L169,314l6.9,0.5
		l-1.6,21.9L177.5,336.6z M175.5,314.9l-6.1-0.5l-2.5,33.6l26.5,2l2.5-33.9l-6.6-0.5l-1.6,22.2l-4.3-0.3l1.5-20.8l-5.5-0.4
		l-1.5,20.8l-4-0.3L175.5,314.9z"/>
</g>
<g class="st0">
	<path class="st1" d="M203.4,289l-7.9,2.4l-2.4,8.5l6.7,1.9l-3.4,12.1l-26.3-7.4l7.6-26.8c2.4-8.3,6.4-10.3,12.3-8.7
		c4.8,1.4,6.1,4.2,6,7.8l0.4,0.1l10.9-3.7L203.4,289z M206.8,275.6l-10.4,3.5l-0.8-0.2c0.2-4.1-1.5-6.5-5.7-7.7
		c-6.1-1.7-9.7,0.8-11.9,8.4l-7.5,26.5l25.5,7.2l3.2-11.3l-6.7-1.9l2.6-9l7.9-2.4L206.8,275.6z M187.6,284.3
		c1.7,0.5,2.2,1.7,1.7,3.7l-2.9,10.4l-5.1-1.4l2.9-10.4C184.8,284.6,186,283.8,187.6,284.3z M187.5,284.7c-1.5-0.4-2.4,0.3-2.9,2
		l-2.8,10l4.3,1.2l2.8-10C189.4,286.2,189,285.1,187.5,284.7z"/>
</g>
<g class="st0">
	<path class="st1" d="M197.7,247.4c-1.9,3.6-1.8,5-0.8,5.6c0.9,0.5,1.7-0.1,3.1-2.3l6.3-9.9c3.8-6,7.7-8.5,12.7-5.9
		c7.1,3.8,5.5,10.3-1.2,22.8c-6.5,12.2-11.2,17-18.5,13.4l6.9-12.8c2.4,0.6,4-0.7,5.8-4c2-3.7,2-5.4,0.8-6.1c-1.1-0.6-2,0.2-3.3,2.2
		l-6.1,9.4c-3.8,5.7-7.4,8.7-12.7,5.9c-6.4-3.4-4.8-10.5,1.2-21.8c5.9-11.1,10.9-16.3,17.6-13.1l-6.8,12.6
		C201,243.2,199.3,244.3,197.7,247.4z M208.9,231.2c-5.7-2.5-10.3,1.1-16.7,13c-6.6,12.3-6.9,18.3-1.4,21.2
		c4.4,2.4,7.9,0.7,12.2-5.8l6.1-9.4c1.6-2.4,2.6-3,3.8-2.4c1.5,0.8,1.3,2.9-0.7,6.6c-1.9,3.5-3.6,4.7-6,4.3l-6.5,12.2
		c6.3,2.9,10.8-0.5,17.7-13.4c7.3-13.6,7.6-18.9,1.3-22.3c-4.5-2.4-8.1-0.7-12.2,5.7l-6.3,9.9c-1.5,2.4-2.5,3.1-3.6,2.4
		c-1.4-0.8-1.2-2.7,0.6-6.1c1.6-3,3.3-4.3,5.1-4.1L208.9,231.2z"/>
</g>
<g class="st0">
	<path class="st1" d="M245.4,196.1c7.6,6.6,6.6,14.9-3.1,26.1c-9.7,11.2-17.7,13.4-25.4,6.8c-7.6-6.6-6.6-14.9,3.1-26.1
		C229.7,191.7,237.8,189.5,245.4,196.1z M217.1,228.7c7.4,6.4,15.2,4.3,24.8-6.8c9.6-11.1,10.6-19.1,3.2-25.5
		c-7.4-6.4-15.2-4.3-24.8,6.8C210.7,214.2,209.7,222.3,217.1,228.7z M225.6,218.9c-3.1-2.7-2.9-6.4,0.7-10.5
		c3.6-4.1,7.2-4.9,10.3-2.2c3.1,2.7,2.9,6.4-0.7,10.5S228.8,221.6,225.6,218.9z M236.4,206.5c-2.9-2.5-6.3-1.9-9.8,2.1
		c-3.5,4-3.6,7.5-0.7,10c2.9,2.5,6.3,1.9,9.8-2.1C239.1,212.5,239.3,209,236.4,206.5z"/>
</g>
<g class="st0">
	<path class="st1" d="M272.9,158.8l16.1,22.1l-11.5,8.4l-18.7-3.5l-0.2,0.2l8.2,11.2l-9.6,7L241,182l11.7-8.5l18.5,3.5l0.2-0.2
		l-8.1-11.1L272.9,158.8z M271.9,176.9l-0.7,0.5l-18.5-3.5l-11.2,8.2l15.6,21.5l8.9-6.5l-8.2-11.2l0.7-0.5l18.7,3.5l11.1-8.1
		l-15.6-21.5l-8.9,6.5L271.9,176.9z"/>
</g>
<g class="st0">
	<path class="st1" d="M295,159l19-8.7l2.6,5.7l-18.9,8.7l1.5,3.2l20.2-9.3l3.1,6.7l-31.6,14.6L279.4,155l31.3-14.4l2.9,6.3
		l-19.9,9.2L295,159z M313.1,146.7l-2.6-5.6l-30.6,14.1l11.1,24.1l30.9-14.3l-2.8-6l-20.2,9.3l-1.8-3.9l19-8.7l-2.3-5l-19,8.7
		l-1.7-3.6L313.1,146.7z"/>
</g>
<g class="st0">
	<path class="st1" d="M321.8,155.3l12.3-3.7l3,9.8l-12.3,3.7L321.8,155.3z M336.6,161.2l-2.8-9.1l-11.6,3.5l2.8,9.1L336.6,161.2z"/>
</g>
<g class="st0">
	<path class="st1" d="M399.8,65.5L397,60l-25.5,0.4l-2.7,5.6l-24,0.4l24.8-48l28-0.5l26.2,47.1L399.8,65.5z M422.6,64.5l-25.4-45.8
		L370,19.1l-24.1,46.6l22.4-0.4l2.7-5.6l26.3-0.4l2.9,5.5L422.6,64.5z M384.4,34.1c0,0,3,6.2,7.2,14.2l-15.2,0.2
		c3.9-8.1,6.7-14.4,6.7-14.4L384.4,34.1z M390.5,47.7c-3.6-7.1-6.5-12.9-6.5-12.9l-0.5,0c0,0-2.6,5.9-6.1,13.1L390.5,47.7z"/>
</g>
<g class="st0">
	<path class="st1" d="M494.2,69.4c-2.2,8.7-7.9,12.5-20.6,9.3l-49.5-12.6L435.8,20l49,12.4c11.6,2.9,14.8,8.5,13,15.9
		c-1.3,5-4.5,7.4-9.4,7.2l-0.1,0.5C493,58.4,496.1,62.2,494.2,69.4z M497.1,48.1c1.9-7.6-2.1-12.4-12.5-15.1l-48.4-12.3l-11.4,44.8
		L473.8,78c11.5,2.9,17.5,0.2,19.8-8.8c1.5-6-0.3-10.1-6.2-12.8l0.4-1.5C493,55.2,495.9,52.7,497.1,48.1z M447.2,61l2.2-8.8
		l18.5,4.7c3.4,0.9,4.7,2.8,4,5.7c-0.7,2.8-2.9,3.9-6.2,3.1L447.2,61z M471.3,62.4c0.7-2.6-0.6-4.1-3.5-4.9L449.9,53l-1.9,7.5
		l17.9,4.5C468.8,65.8,470.7,65,471.3,62.4z M451.5,44.1l2.1-8.1l17.8,4.5c3.1,0.8,4.4,2.6,3.7,5.3c-0.7,2.6-2.7,3.6-5.7,2.9
		L451.5,44.1z M474.4,45.6c0.6-2.4-0.6-3.8-3.2-4.5L454,36.8l-1.7,6.8l17.1,4.3C472.1,48.7,473.8,47.9,474.4,45.6z"/>
</g>
<g class="st0">
	<path class="st1" d="M559.5,104.5c-4.3,7.8-10.8,10.1-22.3,3.9l-44.9-24.4l22.8-41.8l44.4,24.2c10.5,5.7,12.3,11.9,8.6,18.6
		c-2.5,4.5-6.2,6-10.9,4.7l-0.3,0.5C561,93.5,563,97.9,559.5,104.5z M567.5,84.6c3.7-6.8,1.1-12.5-8.4-17.7L515.3,43l-22.1,40.6
		l44.3,24.1c10.4,5.7,17,4.5,21.4-3.6c3-5.4,2.3-9.8-2.8-14l0.8-1.4C561.8,90.4,565.3,88.7,567.5,84.6z M516,84.7l4.3-8l16.8,9.1
		c3,1.7,3.9,3.9,2.5,6.5c-1.4,2.6-3.8,3.1-6.8,1.5L516,84.7z M539,92c1.3-2.3,0.4-4.2-2.2-5.6l-16.2-8.8l-3.7,6.8l16.2,8.8
		C535.8,94.7,537.8,94.3,539,92z M524.3,69.4l4-7.4l16.1,8.8c2.8,1.5,3.6,3.6,2.3,6c-1.3,2.4-3.5,2.9-6.3,1.4L524.3,69.4z
		 M546.1,76.5c1.2-2.2,0.4-3.8-2-5.1l-15.5-8.4l-3.4,6.2l15.5,8.4C543.1,78.9,545,78.6,546.1,76.5z"/>
</g>
<g class="st0">
	<path class="st1" d="M553.6,119.9l29.5-37.1l17,13.5l-29.5,37.1L553.6,119.9z M599.2,96.4l-16-12.7l-28.7,36.1l16,12.7L599.2,96.4z
		"/>
</g>
<g class="st0">
	<path class="st1" d="M609.7,173.7l2.3-5.7l-16.8-19.1l-6,1.6l-15.8-18l52.6-12.2l18.5,21l-18.9,50.4L609.7,173.7z M625.2,190.3
		l18.4-49l-18-20.4l-51.1,11.9l14.8,16.8l6-1.6l17.4,19.7l-2.3,5.7L625.2,190.3z M623.6,141.6c0,0-2.8,6.3-6.2,14.6l-10-11.4
		c8.7-2.3,15.3-4.3,15.3-4.3L623.6,141.6z M617.2,155c3-7.4,5.6-13.3,5.6-13.3l-0.4-0.4c0,0-6.2,1.8-13.9,3.9L617.2,155z"/>
</g>
<g class="st0">
	<path class="st1" d="M660.7,267.5l-9.2-19.8l26.8-12.4l-0.2-0.5l-31.8,1.4l-6.5-14.1l21.9-23.5l-0.3-0.5l-27,12.5l-8.6-18.6
		l43.2-19.9l13.5,29.3l-16.9,17.2l0.2,0.5l24-1.8l14,30.4L660.7,267.5z M689.4,217.8l-24,1.8l-0.6-1.3l16.9-17.2l-13.1-28.3
		l-42,19.4l8,17.4l27-12.5l0.7,1.6l-21.9,23.5l6.1,13.2l31.8-1.4l0.7,1.5L652.4,248l8.6,18.6l42-19.4L689.4,217.8z"/>
</g>
<g class="st0">
	<path class="st1" d="M695.1,341.6c-17.4,2.5-27.1-8.3-30.8-33.9c-3.7-25.6,2.6-38.7,20-41.2s27.1,8.3,30.8,33.9
		C718.8,326,712.5,339.1,695.1,341.6z M684.5,267.2c-16.9,2.4-23.1,15.1-19.5,40.4c3.6,25.3,13.1,35.8,30,33.3
		c16.9-2.4,23.1-15.1,19.5-40.4C710.9,275.2,701.4,264.7,684.5,267.2z M687.7,289.5c7.1-1,11.8,3.6,13.1,12.9
		c1.3,9.4-1.8,15.1-8.9,16.1s-11.7-3.6-13.1-12.9C677.4,296.2,680.5,290.5,687.7,289.5z M691.7,317.9c6.7-1,9.7-6.2,8.4-15.3
		c-1.3-9.1-5.7-13.3-12.3-12.4c-6.7,1-9.7,6.2-8.4,15.3C680.7,314.6,685.1,318.8,691.7,317.9z"/>
</g>
<g class="st0">
	<path class="st1" d="M703.1,447.3l-25.3-5.2c-17.6-3.6-20.8-16.3-16.3-38.2c4.5-21.9,12.4-32.3,30-28.7l25.3,5.2l-4.4,21.4l-24.3-5
		c-5.9-1.2-9.5,2.7-11.1,10.3c-1.5,7.4,0.2,12.6,6.2,13.8l24.3,5L703.1,447.3z M683.1,421.6c-6-1.2-8.4-6.3-6.7-14.6
		c1.7-8.2,5.8-12,11.9-10.8l23.6,4.8L716,381l-24.6-5c-16-3.3-24.5,4.9-29.2,28.2c-4.7,23.2-0.1,34.1,15.8,37.4l24.6,5l4.1-20.1
		L683.1,421.6z"/>
</g>
<g class="st0">
	<path class="st1" d="M667.8,523.7l-42.7-21l11-22.3l31.7-9.7l0.2-0.5l-21.7-10.7l9.1-18.5l42.7,21l-11.1,22.5l-31.3,9.6l-0.2,0.5
		l21.4,10.5L667.8,523.7z M654.6,495l0.6-1.3l31.3-9.6l10.7-21.7L655.8,442l-8.5,17.3l21.7,10.7l-0.6,1.3l-31.7,9.7L626,502.4
		l41.5,20.4l8.5-17.3L654.6,495z"/>
</g>
<g class="st0">
	<path class="st1" d="M639.7,545.4c-9.1-6.6-9.2-14.3,0-27.1l4.9,3.5c-4.1,5.6-2.8,9-0.8,10.5l5.3-7.2l10.9,7.9l-12.9,17.7
		L639.7,545.4z M659,533.2l-9.8-7.2l-5.2,7.2c-3.6-2-3.6-6.4-0.3-11.2l-3.8-2.8c-8.6,12.1-8.5,19.3,0.2,25.6l6.8,5L659,533.2z"/>
</g>
<g class="st0">
	<path class="st1" d="M605.6,526.2l35.6,31.5l-14.5,16.4l-35.6-31.5L605.6,526.2z M626.7,573.2l13.6-15.4l-34.6-30.6l-13.6,15.4
		L626.7,573.2z"/>
</g>
<g class="st0">
	<path class="st1" d="M550.2,608.4c-10.7-13.5-7.7-24.2,6.5-35.4l32.9-26.1l29.5,37.1l-32.9,26.1C572,621.3,561,621.9,550.2,608.4z
		 M618.1,583.9l-28.7-36.1l-32.4,25.7c-14.5,11.5-16.4,21.8-6.3,34.5c10,12.6,20.5,13.1,35,1.6L618.1,583.9z M568.4,594
		c-3.9-4.9-3-9.9,2.5-14.3l11-8.7l12,15.1l-11,8.7C577.3,599.2,572.3,598.9,568.4,594z M592.8,586l-11.2-14l-10.4,8.3
		c-4.8,3.8-6.3,8.3-2.4,13.3c4,5,8.7,4.5,13.5,0.7L592.8,586z"/>
</g>
<g class="st0">
	<path class="st1" d="M525.5,627.4l-33,15.3l-4.6-9.9l33-15.3l-2.6-5.6l-35.2,16.3l-5.4-11.6l55-25.5l20,43.2l-54.5,25.3l-5.1-10.9
		l34.7-16.1L525.5,627.4z M494,648.8l4.5,9.7l53.3-24.7l-19.4-42l-53.8,24.9l4.8,10.4l35.2-16.3l3.2,6.8l-33,15.3l4,8.7l33-15.3
		l2.9,6.3L494,648.8z"/>
</g>
<g class="st0">
	<path class="st1" d="M423.9,627.7l3.8,4.9l25.1-4.7l1.7-5.9l23.6-4.4L461.7,669l-27.6,5.2l-33.7-42.1L423.9,627.7z M401.6,632.5
		l32.7,40.9l26.8-5l15.9-50l-22.1,4.1l-1.7,5.9l-25.9,4.8l-3.8-4.9L401.6,632.5z M444.4,656.1c0,0-4-5.6-9.4-12.8l14.9-2.8
		c-2.4,8.7-4.2,15.4-4.2,15.4L444.4,656.1z M436.1,643.7c4.8,6.4,8.5,11.6,8.5,11.6l0.5-0.1c0,0,1.6-6.3,3.8-13.9L436.1,643.7z"/>
</g>
<g class="st0">
	<path class="st1" d="M305.1,650.6c1.8-11.6,8.1-16.4,23.6-14l24.2,3.7l1.9-12.2l21.6,3.3l-7.3,47l-45.8-7.1
		C307.8,668.9,303.3,662.4,305.1,650.6z M368.6,677.6l7.1-45.7l-20.3-3.1l-1.9,12.2l-24.9-3.8c-14.5-2.2-21,1.7-22.8,13.5
		c-1.9,12,3.2,17.7,17.7,20L368.6,677.6z M351.7,652.4l-1.5,10l-17-2.6c-3.8-0.6-5.6-2.6-5.1-5.9c0.5-3.2,2.9-4.7,6.6-4.1
		L351.7,652.4z M328.8,654c-0.5,3,1.2,4.6,4.5,5.1l16.3,2.5l1.3-8.7l-16.3-2.5C331.3,649.9,329.2,651.1,328.8,654z"/>
</g>
<g class="st0">
	<path class="st1" d="M276.2,639.2l-33.5-13.8l4.2-10.1l33.5,13.8l2.4-5.7L247,608.7l4.9-11.8l55.8,23l-18.1,43.8l-55.3-22.8
		l4.6-11.1l35.2,14.5L276.2,639.2z M239.2,630.7l-4.1,9.9l54.1,22.3l17.6-42.5l-54.5-22.5l-4.4,10.5l35.7,14.7l-2.9,6.9l-33.5-13.8
		l-3.6,8.8l33.5,13.8l-2.6,6.4L239.2,630.7z"/>
</g>
<g class="st0">
	<path class="st1" d="M212.4,569.3l-0.9,14.4l12.4,9.1l7.1-9.8l17.7,12.9l-28,38.4l-39.3-28.6c-12.2-8.9-13.1-16.7-6.7-25.4
		c5.1-7,10.6-7.4,16.3-5.1l0.4-0.5l0.6-20.1L212.4,569.3z M192.6,555.7l-0.5,19.1l-0.8,1.1c-6.6-2.9-11.6-1.4-16,4.7
		c-6.5,9-4.6,16.4,6.6,24.5l38.8,28.2l27.2-37.4l-16.6-12.1l-7.1,9.8l-13.2-9.6l0.9-14.4L192.6,555.7z M195.2,592.2
		c1.8-2.4,4.2-2.6,7-0.6l15.2,11.1l-5.4,7.4l-15.2-11.1C194,597,193.5,594.7,195.2,592.2z M195.8,592.6c-1.6,2.2-1,4.2,1.5,5.9
		l14.6,10.7l4.6-6.4l-14.6-10.7C199.4,590.4,197.4,590.5,195.8,592.6z"/>
</g>
<g class="st0">
	<path class="st1" d="M175.8,534.7L139,564.8l-13.8-16.9l36.8-30.1L175.8,534.7z M126.1,548l13,15.9l35.8-29.3l-13-15.9L126.1,548z"
		/>
</g>
<g class="st0">
	<path class="st1" d="M158.3,515.2l-41.1,23.9l-11-18.9l27.4-15.9l-19.6-33.7l13.8-8L158.3,515.2z M114.9,470.8l19.6,33.7
		l-27.4,15.9l10.3,17.7l40-23.2l-29.9-51.4L114.9,470.8z"/>
</g>
<g class="st0">
	<path class="st1" d="M81.4,423.9l6.7-1.5l-8-35.8l12.8-2.8l8,35.8l12.6-2.8l4.7,21.3l-46.4,10.3l-13.1-59.1l14.3-3.2L81.4,423.9z
		 M59.6,389.8l12.8,57.8l45.1-10l-4.4-20l-12.6,2.8l-8-35.8L81,387.1l8,35.8l-8,1.8L72.6,387L59.6,389.8z"/>
</g>
<g class="st0">
	<path class="st1" d="M58.3,307.3l25.8,0.5c17.9,0.3,23.4,12.3,23,34.5c-0.4,22.4-6.4,34-24.3,33.7L57,375.6l0.4-21.8l24.8,0.5
		c6.1,0.1,8.9-4.4,9-12.1c0.1-7.6-2.5-12.3-8.6-12.4l-24.8-0.5L58.3,307.3z M82.7,329c6.1,0.1,9.4,4.7,9.2,13.1
		c-0.2,8.4-3.5,12.9-9.7,12.7l-24.1-0.5l-0.4,20.5l25.1,0.5c16.3,0.3,23.2-9.2,23.6-33c0.4-23.7-6.1-33.6-22.4-33.9L58.9,308
		l-0.4,20.5L82.7,329z"/>
</g>
<g class="st0">
	<path class="st1" d="M93.7,233.3L87.8,255l30,8.2l-5.7,21.1l-30-8.2l-5.9,21.6l-15.9-4.3L77.8,229L93.7,233.3z M61.2,292.9l14.6,4
		l5.9-21.6l30,8.2l5.4-19.8l-30-8.2l5.9-21.7l-14.6-4L61.2,292.9z"/>
</g>
<g class="st0">
	<path class="st1" d="M116.6,156.4l22.5,12.7c15.6,8.8,14.8,21.9,3.9,41.3c-11,19.5-21.7,26.9-37.3,18.1l-22.5-12.7l10.7-19
		l21.6,12.2c5.3,3,9.9,0.3,13.7-6.4c3.7-6.6,3.6-12-1.6-15l-21.6-12.2L116.6,156.4z M127.8,187c5.3,3,6,8.6,1.9,15.9
		c-4.1,7.3-9.2,9.7-14.6,6.6l-21-11.8L84,215.6l21.9,12.3c14.2,8,24.8,2.9,36.4-17.9c11.6-20.7,10.6-32.4-3.6-40.4l-21.9-12.3
		l-10.1,17.9L127.8,187z"/>
</g>
<g class="st0">
	<path class="st1" d="M191.2,144.6l-14.1-2.8l-10.6,11.1l8.7,8.4L160.1,177l-34.2-32.8l33.6-35c10.4-10.8,18.2-10.7,26-3.2
		c6.2,6,5.9,11.5,2.8,16.8l0.5,0.5l19.8,3.2L191.2,144.6z M207.2,126.9l-18.8-3.1l-1-1c3.7-6.1,3-11.2-2.5-16.4
		c-8-7.7-15.6-6.7-25.1,3.2l-33.1,34.5l33.3,31.9l14.2-14.8l-8.7-8.4l11.3-11.8l14.1,2.8L207.2,126.9z M170.8,124.6
		c2.2,2.1,2,4.5-0.4,7l-13,13.5l-6.6-6.3l13-13.5C166.2,122.8,168.6,122.5,170.8,124.6z M170.3,125.1c-1.9-1.8-4-1.5-6,0.6l-12.5,13
		l5.7,5.4l12.5-13C172,129,172.2,126.9,170.3,125.1z"/>
</g>
<g class="st0">
	<path class="st1" d="M261,66.6c9.1,15,3,28.2-19.1,41.6c-22.1,13.4-36.6,12.8-45.7-2.2c-9.1-15-3-28.2,19.1-41.6
		C237.3,50.9,251.8,51.5,261,66.6z M196.7,105.6c8.9,14.6,22.9,15.3,44.8,2s27.7-26.1,18.9-40.7c-8.9-14.6-22.9-15.3-44.8-2
		S187.8,90.9,196.7,105.6z M216,93.8c-3.7-6.1-1.3-12.2,6.7-17.1c8.1-4.9,14.6-4.2,18.3,1.9c3.7,6.1,1.3,12.2-6.7,17.1
		C226.3,100.7,219.8,100,216,93.8z M240.5,79c-3.5-5.8-9.5-6.4-17.4-1.7c-7.9,4.8-10,10.5-6.5,16.2s9.5,6.4,17.4,1.7
		C241.8,90.4,244,84.7,240.5,79z"/>
</g>
<g class="st0">
	<path class="st1" d="M264.4,54l18.9-7.2l5.5,14.4l-18.9,7.2L264.4,54z M287.9,60.9l-5-13.2l-17.6,6.7l5,13.2L287.9,60.9z
		 M271.8,73.3l18.9-7.2l5.5,14.4l-18.9,7.2L271.8,73.3z M295.3,80.2l-5-13.2l-17.6,6.7l5,13.2L295.3,80.2z"/>
</g>
<g class="st0">
	<path class="st1" d="M5.8,54c0-23.8,13-33.8,46.5-33.8V33c-14.9-0.1-19.1,6.5-19.1,11.6h19.1v28.6H5.8V54z M50.9,71.9V46.1h-19
		c-1-8.7,6.5-14.2,19-14.5v-9.9C19.4,22,7.2,31.2,7.2,54v17.9H50.9z M60.8,54c0-23.8,12.9-33.8,46.5-33.8V33
		c-14.9-0.1-19.1,6.5-19.1,11.6h19.1v28.6H60.8V54z M105.9,71.9V46.1h-19c-1-8.7,6.5-14.2,19-14.5v-9.9C74.5,22,62.3,31.2,62.3,54
		v17.9H105.9z"/>
</g>
<g class="st0">
	<path class="st1" d="M715,646.3c0,23.8-13,33.8-46.5,33.8v-12.8c14.7,0.1,19-6.5,19-11.6h-19V627H715V646.3z M669.9,628.4v25.8
		h18.9c1,8.7-6.5,14.2-18.9,14.5v9.9c31.5-0.3,43.7-9.5,43.7-32.3v-17.9H669.9z M770,646.3c0,23.8-13,33.8-46.5,33.8v-12.8
		c14.7,0.1,19-6.5,19-11.6h-19V627H770V646.3z M724.9,628.4v25.8h18.9c1,8.7-6.5,14.2-18.9,14.5v9.9c31.5-0.3,43.7-9.5,43.7-32.3
		v-17.9H724.9z"/>
</g>
</svg>
