<svg id="Layer_1" data-name="Layer 1" xmlns="http://www.w3.org/2000/svg" width="775.67" height="790.52" viewBox="0 0 775.67 790.52"><defs><style>.cls-1,.cls-10,.cls-11,.cls-12,.cls-13,.cls-14,.cls-15,.cls-16,.cls-17,.cls-2,.cls-3,.cls-4,.cls-5,.cls-6,.cls-7,.cls-8,.cls-9{isolation:isolate;font-family:Shapiro-97AirExtd, Shapiro;}.cls-1{font-size:38.22px;}.cls-2{font-size:38.22px;}.cls-3{font-size:38.18px;}.cls-4{font-size:38.29px;}.cls-5{font-size:38.32px;}.cls-6{font-size:38.19px;}.cls-7{font-size:38.23px;}.cls-8{font-size:38.39px;}.cls-9{font-size:38.13px;}.cls-10{font-size:38.3px;}.cls-11{font-size:66.62px;}.cls-12{font-size:66.38px;}.cls-13{font-size:66.56px;}.cls-14{font-size:66.76px;}.cls-15{font-size:66.31px;}.cls-16{font-size:66.44px;}.cls-17{font-size:141.82px;}</style></defs><title>who-logo-black</title><text class="cls-1" transform="matrix(1, 0.04, -0.04, 1, 371.89, 154.26)">C</text><text class="cls-1" transform="matrix(0.96, 0.26, -0.26, 0.96, 415.77, 155.7)">O</text><text class="cls-1" transform="matrix(0.88, 0.47, -0.47, 0.88, 458.86, 167.48)">N</text><text class="cls-2" transform="translate(495.61 186.92) rotate(40.54)">S</text><text class="cls-3" transform="matrix(0.66, 0.75, -0.75, 0.66, 527.26, 215.16)">I</text><text class="cls-1" transform="translate(537.99 225.89) rotate(57.36)">D</text><text class="cls-1" transform="translate(560.28 260.9) rotate(68.99)">E</text><text class="cls-1" transform="translate(573.77 295.06) rotate(80.6)">R</text><text class="cls-1" transform="translate(580.77 335.55) rotate(93.07)">A</text><text class="cls-1" transform="translate(578.4 379.53) rotate(105.7)">R</text><text class="cls-4" transform="translate(567.15 419.17) rotate(117.33)">E</text><text class="cls-5" transform="translate(541.89 462.82) rotate(128.93)">I</text><text class="cls-5" transform="translate(523.87 485.08) rotate(141.07)">B</text><text class="cls-1" transform="translate(492.22 510.65) rotate(153.41)">R</text><text class="cls-6" transform="matrix(-0.97, 0.24, -0.24, -0.97, 455.64, 529.31)">A</text><text class="cls-7" transform="translate(412.88 539.89) rotate(178.85)">N</text><text class="cls-1" transform="translate(371.31 540.96) rotate(-169.06)">D</text><text class="cls-1" transform="translate(317.7 528.96) rotate(-152.31)">C</text><text class="cls-2" transform="translate(278.74 508.73) rotate(-139.46)">O</text><text class="cls-8" transform="matrix(-0.58, -0.82, 0.82, -0.58, 244.63, 479.97)">M</text><text class="cls-1" transform="translate(216.26 438.97) rotate(-112.52)">E</text><text class="cls-1" transform="translate(198.38 392.08) rotate(-97.03)">P</text><text class="cls-1" transform="matrix(0.07, -1, 1, 0.07, 193.51, 352.11)">E</text><text class="cls-1" transform="translate(195.88 315.45) rotate(-74.18)">R</text><text class="cls-9" transform="translate(206.8 276.11) rotate(-61.89)">S</text><text class="cls-1" transform="translate(226.4 238.84) rotate(-49.07)">O</text><text class="cls-10" transform="translate(255.68 205.12) rotate(-36.07)">N</text><text class="cls-1" transform="translate(289.25 180.54) rotate(-24.77)">E</text><text class="cls-1" transform="translate(323.16 165.65) rotate(-16.91)">.</text><text class="cls-11" transform="translate(344.76 66.4) rotate(-0.93)">A</text><text class="cls-11" transform="translate(421.17 65.39) rotate(14.22)">B</text><text class="cls-11" transform="translate(489.69 82.45) rotate(28.58)">B</text><text class="cls-12" transform="matrix(0.78, 0.62, -0.62, 0.78, 551.29, 118.03)">I</text><text class="cls-13" transform="matrix(0.66, 0.75, -0.75, 0.66, 573.31, 132.33)">A</text><text class="cls-11" transform="matrix(0.42, 0.91, -0.91, 0.42, 624.53, 189.14)">M</text><text class="cls-11" transform="translate(660.53 267.77) rotate(81.86)">O</text><text class="cls-11" transform="matrix(-0.2, 0.98, -0.98, -0.2, 670.78, 368.02)">U</text><text class="cls-11" transform="translate(656.77 438.39) rotate(116.17)">N</text><text class="cls-14" transform="translate(623.03 502.74) rotate(126.07)">’</text><text class="cls-11" transform="matrix(-0.66, 0.75, -0.75, -0.66, 607.61, 523.97)">I</text><text class="cls-12" transform="matrix(-0.78, 0.62, -0.62, -0.78, 591.91, 545)">D</text><text class="cls-11" transform="translate(535.46 589.78) rotate(155.15)">E</text><text class="cls-11" transform="translate(478.07 617.57) rotate(169.41)">A</text><text class="cls-11" transform="translate(379.39 631.84) rotate(-171.22)">P</text><text class="cls-15" transform="translate(310.39 621.1) rotate(-157.56)">E</text><text class="cls-11" transform="translate(251.15 597.51) rotate(-143.93)">R</text><text class="cls-11" transform="matrix(-0.63, -0.77, 0.77, -0.63, 177.71, 537.01)">I</text><text class="cls-11" transform="translate(159.8 517.75) rotate(-120.19)">L</text><text class="cls-11" transform="translate(118.96 441.08) rotate(-102.51)">F</text><text class="cls-11" transform="translate(104.52 379.44) rotate(-88.93)">U</text><text class="cls-11" transform="translate(105.75 307.66) rotate(-74.81)">T</text><text class="cls-11" transform="matrix(0.49, -0.87, 0.87, 0.49, 123.08, 241.81)">U</text><text class="cls-16" transform="translate(158.07 179.15) rotate(-46.22)">R</text><text class="cls-11" transform="translate(206.69 127.35) rotate(-31.28)">O</text><text class="cls-11" transform="translate(274.47 88.81) rotate(-20.86)">:</text><text class="cls-17" transform="translate(0 121.54)">“</text><text class="cls-17" transform="translate(662.64 728.26)">”</text></svg>