<svg id="Layer_1" data-name="Layer 1" xmlns="http://www.w3.org/2000/svg" width="775.67" height="790.52" viewBox="0 0 775.67 790.52"><defs><style>.cls-1{font-size:38.22px;}.cls-1,.cls-2,.cls-3{fill:#fa7268;font-family:Shapiro-97AirExtd, Shapiro;}.cls-2{font-size:66.62px;}.cls-3{font-size:141.82px;}</style></defs><title>who-logo-white</title><text class="cls-1" transform="translate(359.01 156.87) rotate(-6.24)"> </text><text class="cls-1" transform="translate(371.89 154.26) rotate(2.15)">C</text><text class="cls-1" transform="translate(415.77 155.7) rotate(15.25)">O</text><text class="cls-1" transform="translate(458.86 167.48) rotate(28.1)">N</text><text class="cls-1" transform="matrix(0.76, 0.65, -0.65, 0.76, 495.61, 186.92)">S</text><text class="cls-1" transform="matrix(0.66, 0.75, -0.75, 0.66, 527.26, 215.16)">I</text><text class="cls-1" transform="translate(537.99 225.89) rotate(57.36)">D</text><text class="cls-1" transform="translate(560.28 260.9) rotate(68.99)">E</text><text class="cls-1" transform="translate(573.77 295.06) rotate(80.6)">R</text><text class="cls-1" transform="translate(580.77 335.55) rotate(93.07)">A</text><text class="cls-1" transform="translate(578.4 379.53) rotate(105.7)">R</text><text class="cls-1" transform="matrix(-0.46, 0.89, -0.89, -0.46, 567.15, 419.17)">E</text><text class="cls-1" transform="matrix(-0.57, 0.82, -0.82, -0.57, 549.51, 451.74)"> </text><text class="cls-1" transform="matrix(-0.63, 0.78, -0.78, -0.63, 541.89, 462.82)">I</text><text class="cls-1" transform="translate(532.13 474.81) rotate(133.31)"> </text><text class="cls-1" transform="matrix(-0.78, 0.63, -0.63, -0.78, 523.87, 485.08)">B</text><text class="cls-1" transform="translate(492.22 510.65) rotate(153.41)">R</text><text class="cls-1" transform="matrix(-0.97, 0.24, -0.24, -0.97, 455.64, 529.31)">A</text><text class="cls-1" transform="matrix(-1, 0.02, -0.02, -1, 412.88, 539.89)">N</text><text class="cls-1" transform="translate(371.31 540.96) rotate(-169.06)">D</text><text class="cls-1" transform="translate(330.47 532.09) rotate(-160.86)"> </text><text class="cls-1" transform="translate(317.7 528.96) rotate(-152.31)">C</text><text class="cls-1" transform="matrix(-0.76, -0.65, 0.65, -0.76, 278.74, 508.73)">O</text><text class="cls-1" transform="matrix(-0.58, -0.82, 0.82, -0.58, 244.63, 479.97)">M</text><text class="cls-1" transform="translate(216.26 438.97) rotate(-112.52)">E</text><text class="cls-1" transform="translate(202.74 404.45) rotate(-105.01)"> </text><text class="cls-1" transform="translate(198.38 392.08) rotate(-97.03)">P</text><text class="cls-1" transform="translate(193.51 352.11) rotate(-85.75)">E</text><text class="cls-1" transform="translate(195.88 315.45) rotate(-74.18)">R</text><text class="cls-1" transform="matrix(0.47, -0.88, 0.88, 0.47, 206.8, 276.11)">S</text><text class="cls-1" transform="translate(226.4 238.84) rotate(-49.07)">O</text><text class="cls-1" transform="matrix(0.81, -0.59, 0.59, 0.81, 255.68, 205.12)">N</text><text class="cls-1" transform="translate(289.25 180.54) rotate(-24.77)">E</text><text class="cls-1" transform="translate(323.16 165.65) rotate(-16.91)">.</text><text class="cls-2" transform="translate(344.76 66.4) rotate(-0.93)">A</text><text class="cls-2" transform="translate(421.17 65.39) rotate(14.22)">B</text><text class="cls-2" transform="translate(489.69 82.45) rotate(28.58)">B</text><text class="cls-2" transform="matrix(0.78, 0.62, -0.62, 0.78, 551.29, 118.03)">I</text><text class="cls-2" transform="matrix(0.66, 0.75, -0.75, 0.66, 573.31, 132.33)">A</text><text class="cls-2" transform="translate(624.53 189.14) rotate(65.22)">M</text><text class="cls-2" transform="translate(660.53 267.77) rotate(81.86)">O</text><text class="cls-2" transform="matrix(-0.03, 1, -1, -0.03, 669.31, 345.31)"> </text><text class="cls-2" transform="translate(670.78 368.02) rotate(101.54)">U</text><text class="cls-2" transform="translate(656.77 438.39) rotate(116.17)">N</text><text class="cls-2" transform="matrix(-0.59, 0.81, -0.81, -0.59, 623.03, 502.74)">’</text><text class="cls-2" transform="translate(607.61 523.97) rotate(131.49)">I</text><text class="cls-2" transform="matrix(-0.78, 0.62, -0.62, -0.78, 591.91, 545)">D</text><text class="cls-2" transform="translate(535.46 589.78) rotate(155.15)">E</text><text class="cls-2" transform="translate(478.07 617.57) rotate(169.41)">A</text><text class="cls-2" transform="translate(401.97 629.43) rotate(179.07)"> </text><text class="cls-2" transform="translate(379.39 631.84) rotate(-171.22)">P</text><text class="cls-2" transform="matrix(-0.92, -0.38, 0.38, -0.92, 310.39, 621.1)">E</text><text class="cls-2" transform="translate(251.15 597.51) rotate(-143.93)">R</text><text class="cls-2" transform="matrix(-0.7, -0.71, 0.71, -0.7, 194.06, 553.55)"> </text><text class="cls-2" transform="translate(177.71 537.01) rotate(-129.32)">I</text><text class="cls-2" transform="translate(159.8 517.75) rotate(-120.19)">L</text><text class="cls-2" transform="translate(128.84 461.62) rotate(-111.36)"> </text><text class="cls-2" transform="translate(118.96 441.08) rotate(-102.51)">F</text><text class="cls-2" transform="translate(104.52 379.44) rotate(-88.93)">U</text><text class="cls-2" transform="translate(105.75 307.66) rotate(-74.81)">T</text><text class="cls-2" transform="translate(123.08 241.81) rotate(-60.6)">U</text><text class="cls-2" transform="matrix(0.69, -0.72, 0.72, 0.69, 158.07, 179.15)">R</text><text class="cls-2" transform="translate(206.69 127.35) rotate(-31.28)">O</text><text class="cls-2" transform="translate(274.47 88.81) rotate(-20.86)">:</text><text class="cls-3" transform="translate(0 121.54)">“</text><text class="cls-3" transform="translate(662.64 728.26)">”</text></svg>